<svg xmlns="http://www.w3.org/2000/svg" xmlns:xlink="http://www.w3.org/1999/xlink" width="500" zoomAndPan="magnify" viewBox="0 0 375 119.999999" height="160" preserveAspectRatio="xMidYMid meet" version="1.0"><defs><g/><clipPath id="c76a814be9"><path d="M 64 16 L 131.621094 16 L 131.621094 85 L 64 85 Z M 64 16 " clip-rule="nonzero"/></clipPath><clipPath id="dc839a18aa"><path d="M 43 65 L 91 65 L 91 101.25 L 43 101.25 Z M 43 65 " clip-rule="nonzero"/></clipPath></defs><g fill="#000000" fill-opacity="1"><g transform="translate(133.716821, 57.843011)"><g><path d="M 6.640625 0 L 1.21875 -42.15625 L 7.109375 -42.15625 L 9.859375 -19.859375 L 10.75 -5.0625 L 11.90625 -5.0625 L 12.796875 -19.859375 L 15.546875 -42.15625 L 21.4375 -42.15625 L 16.0625 0 Z M 6.640625 0 "/></g></g></g><g fill="#000000" fill-opacity="1"><g transform="translate(155.313911, 57.843011)"><g><path d="M 2.421875 0 L 2.421875 -42.15625 L 17.5 -42.15625 L 17.5 -37.09375 L 8.171875 -37.09375 L 8.171875 -23.875 L 16.96875 -23.875 L 16.96875 -18.8125 L 8.171875 -18.8125 L 8.171875 -5.0625 L 17.5 -5.0625 L 17.5 0 Z M 2.421875 0 "/></g></g></g><g fill="#000000" fill-opacity="1"><g transform="translate(173.170973, 57.843011)"><g><path d="M 7.328125 0 L 7.328125 -37.09375 L 1.21875 -37.09375 L 1.21875 -42.15625 L 19.078125 -42.15625 L 19.078125 -37.09375 L 13.015625 -37.09375 L 13.015625 0 Z M 7.328125 0 "/></g></g></g><g fill="#00bf63" fill-opacity="1"><g transform="translate(133.716821, 106.539528)"><g><path d="M 1.109375 0 L 5.875 -38.8125 L 14.609375 -38.8125 L 19.359375 0 L 14.015625 0 L 13.09375 -9.703125 L 7.421875 -9.703125 L 6.5 0 Z M 7.90625 -14.3125 L 12.5625 -14.3125 L 11.734375 -22.84375 L 10.921875 -34.15625 L 9.5625 -34.15625 L 8.734375 -22.84375 Z M 7.90625 -14.3125 "/></g></g></g><g fill="#00bf63" fill-opacity="1"><g transform="translate(153.076537, 106.539528)"><g><path d="M 2.234375 0 L 2.234375 -38.8125 L 9.890625 -38.8125 C 12.773438 -38.8125 14.867188 -38.195312 16.171875 -36.96875 C 17.484375 -35.738281 18.191406 -33.734375 18.296875 -30.953125 C 18.359375 -29.171875 18.390625 -27.5625 18.390625 -26.125 C 18.390625 -24.6875 18.359375 -23.175781 18.296875 -21.59375 C 18.191406 -18.8125 17.484375 -16.804688 16.171875 -15.578125 C 14.867188 -14.347656 12.757812 -13.734375 9.84375 -13.734375 L 7.515625 -13.734375 L 7.515625 0 Z M 7.515625 -18.390625 L 9.84375 -18.390625 C 11.882812 -18.390625 12.953125 -19.375 13.046875 -21.34375 C 13.109375 -22.894531 13.140625 -24.535156 13.140625 -26.265625 C 13.140625 -27.992188 13.109375 -29.640625 13.046875 -31.203125 C 12.953125 -33.171875 11.898438 -34.15625 9.890625 -34.15625 L 7.515625 -34.15625 Z M 7.515625 -18.390625 "/></g></g></g><g fill="#00bf63" fill-opacity="1"><g transform="translate(171.611402, 106.539528)"><g><path d="M 2.234375 0 L 2.234375 -38.8125 L 9.890625 -38.8125 C 12.773438 -38.8125 14.867188 -38.195312 16.171875 -36.96875 C 17.484375 -35.738281 18.191406 -33.734375 18.296875 -30.953125 C 18.359375 -29.171875 18.390625 -27.5625 18.390625 -26.125 C 18.390625 -24.6875 18.359375 -23.175781 18.296875 -21.59375 C 18.191406 -18.8125 17.484375 -16.804688 16.171875 -15.578125 C 14.867188 -14.347656 12.757812 -13.734375 9.84375 -13.734375 L 7.515625 -13.734375 L 7.515625 0 Z M 7.515625 -18.390625 L 9.84375 -18.390625 C 11.882812 -18.390625 12.953125 -19.375 13.046875 -21.34375 C 13.109375 -22.894531 13.140625 -24.535156 13.140625 -26.265625 C 13.140625 -27.992188 13.109375 -29.640625 13.046875 -31.203125 C 12.953125 -33.171875 11.898438 -34.15625 9.890625 -34.15625 L 7.515625 -34.15625 Z M 7.515625 -18.390625 "/></g></g></g><g fill="#000000" fill-opacity="1"><g transform="translate(190.148982, 106.539528)"><g><path d="M 10.53125 0.390625 C 7.613281 0.390625 5.554688 -0.222656 4.359375 -1.453125 C 3.171875 -2.679688 2.507812 -4.734375 2.375 -7.609375 C 2.3125 -8.835938 2.269531 -10.289062 2.25 -11.96875 C 2.238281 -13.65625 2.238281 -15.347656 2.25 -17.046875 C 2.269531 -18.742188 2.3125 -20.242188 2.375 -21.546875 C 2.507812 -24.390625 3.164062 -26.425781 4.34375 -27.65625 C 5.519531 -28.882812 7.582031 -29.5 10.53125 -29.5 C 13.46875 -29.5 15.507812 -28.875 16.65625 -27.625 C 17.8125 -26.382812 18.46875 -24.359375 18.625 -21.546875 C 18.65625 -20.285156 18.679688 -18.8125 18.703125 -17.125 C 18.722656 -15.445312 18.734375 -13.765625 18.734375 -12.078125 C 18.734375 -10.398438 18.695312 -8.910156 18.625 -7.609375 C 18.46875 -4.765625 17.8125 -2.71875 16.65625 -1.46875 C 15.507812 -0.226562 13.46875 0.390625 10.53125 0.390625 Z M 10.53125 -3.59375 C 11.53125 -3.59375 12.25 -3.8125 12.6875 -4.25 C 13.125 -4.6875 13.359375 -5.390625 13.390625 -6.359375 C 13.484375 -9.203125 13.53125 -11.941406 13.53125 -14.578125 C 13.53125 -17.210938 13.484375 -19.9375 13.390625 -22.75 C 13.359375 -23.71875 13.125 -24.421875 12.6875 -24.859375 C 12.25 -25.296875 11.53125 -25.515625 10.53125 -25.515625 C 9.53125 -25.515625 8.800781 -25.296875 8.34375 -24.859375 C 7.894531 -24.421875 7.648438 -23.71875 7.609375 -22.75 C 7.515625 -19.9375 7.46875 -17.203125 7.46875 -14.546875 C 7.46875 -11.898438 7.515625 -9.171875 7.609375 -6.359375 C 7.648438 -5.390625 7.894531 -4.6875 8.34375 -4.25 C 8.800781 -3.8125 9.53125 -3.59375 10.53125 -3.59375 Z M 10.53125 -3.59375 "/></g></g></g><g fill="#000000" fill-opacity="1"><g transform="translate(210.18799, 106.539528)"><g><path d="M 1.9375 -34.109375 L 1.9375 -38.8125 L 8.109375 -38.8125 L 8.109375 -34.109375 Z M 2.421875 0 L 2.421875 -29.109375 L 7.671875 -29.109375 L 7.671875 0 Z M 2.421875 0 "/></g></g></g><g fill="#000000" fill-opacity="1"><g transform="translate(219.261276, 106.539528)"><g><path d="M 2.234375 0 L 2.234375 -29.109375 L 7.515625 -29.109375 L 7.515625 -26.25 L 8.484375 -26.25 C 9.035156 -27.28125 9.660156 -28.078125 10.359375 -28.640625 C 11.054688 -29.210938 12.050781 -29.5 13.34375 -29.5 C 15.125 -29.5 16.488281 -28.960938 17.4375 -27.890625 C 18.394531 -26.828125 18.875 -25.050781 18.875 -22.5625 L 18.875 0 L 13.640625 0 L 13.640625 -22.953125 C 13.640625 -24.722656 12.828125 -25.609375 11.203125 -25.609375 C 10.460938 -25.609375 9.734375 -25.378906 9.015625 -24.921875 C 8.304688 -24.472656 7.804688 -23.863281 7.515625 -23.09375 L 7.515625 0 Z M 2.234375 0 "/></g></g></g><g fill="#000000" fill-opacity="1"><g transform="translate(239.494372, 106.539528)"><g><path d="M 12.65625 0.390625 C 9.65625 0.390625 7.539062 -0.164062 6.3125 -1.28125 C 5.082031 -2.394531 4.46875 -4.25 4.46875 -6.84375 L 4.46875 -25.078125 L 2.09375 -25.078125 L 2.09375 -29.109375 L 4.515625 -29.109375 L 4.515625 -37.359375 L 9.890625 -37.359375 L 9.796875 -29.109375 L 14.40625 -29.109375 L 14.40625 -25.078125 L 9.703125 -25.078125 L 9.703125 -6.3125 C 9.703125 -5.269531 9.882812 -4.546875 10.25 -4.140625 C 10.625 -3.742188 11.425781 -3.546875 12.65625 -3.546875 C 13.082031 -3.546875 13.457031 -3.5625 13.78125 -3.59375 C 14.101562 -3.625 14.472656 -3.640625 14.890625 -3.640625 L 14.890625 0.140625 C 14.566406 0.242188 14.210938 0.3125 13.828125 0.34375 C 13.441406 0.375 13.050781 0.390625 12.65625 0.390625 Z M 12.65625 0.390625 "/></g></g></g><g fill="#000000" fill-opacity="1"><g transform="translate(254.875371, 106.539528)"><g><path d="M 2.234375 0 L 2.234375 -29.109375 L 7.515625 -29.109375 L 7.515625 -26.25 L 8.4375 -26.25 C 9.019531 -27.3125 9.648438 -28.117188 10.328125 -28.671875 C 11.015625 -29.222656 12.019531 -29.5 13.34375 -29.5 C 14.664062 -29.5 15.75 -29.210938 16.59375 -28.640625 C 17.4375 -28.078125 18.035156 -27.164062 18.390625 -25.90625 L 19.3125 -25.90625 C 19.894531 -26.976562 20.582031 -27.84375 21.375 -28.5 C 22.164062 -29.164062 23.222656 -29.5 24.546875 -29.5 C 26.328125 -29.5 27.675781 -28.960938 28.59375 -27.890625 C 29.519531 -26.828125 30 -25.050781 30.03125 -22.5625 L 30.078125 0 L 24.84375 0 L 24.796875 -22.953125 C 24.722656 -24.722656 23.929688 -25.609375 22.421875 -25.609375 C 21.671875 -25.609375 20.972656 -25.375 20.328125 -24.90625 C 19.679688 -24.4375 19.179688 -23.800781 18.828125 -23 L 18.875 0 L 13.640625 0 L 13.578125 -22.953125 C 13.578125 -24.722656 12.785156 -25.609375 11.203125 -25.609375 C 10.429688 -25.609375 9.695312 -25.398438 9 -24.984375 C 8.300781 -24.566406 7.804688 -23.9375 7.515625 -23.09375 L 7.515625 0 Z M 2.234375 0 "/></g></g></g><g fill="#000000" fill-opacity="1"><g transform="translate(286.268275, 106.539528)"><g><path d="M 12.953125 -10.625 L 18.046875 -10.625 C 18.078125 -10.175781 18.097656 -9.578125 18.109375 -8.828125 C 18.128906 -8.085938 18.125 -7.425781 18.09375 -6.84375 C 18 -4.25 17.359375 -2.394531 16.171875 -1.28125 C 14.992188 -0.164062 13.0625 0.390625 10.375 0.390625 C 7.632812 0.390625 5.640625 -0.164062 4.390625 -1.28125 C 3.140625 -2.394531 2.453125 -4.25 2.328125 -6.84375 C 2.296875 -7.78125 2.269531 -8.921875 2.25 -10.265625 C 2.238281 -11.609375 2.234375 -13.003906 2.234375 -14.453125 C 2.234375 -15.910156 2.238281 -17.316406 2.25 -18.671875 C 2.269531 -20.035156 2.296875 -21.203125 2.328125 -22.171875 C 2.492188 -24.785156 3.195312 -26.660156 4.4375 -27.796875 C 5.6875 -28.929688 7.648438 -29.5 10.328125 -29.5 C 12.984375 -29.5 14.914062 -28.945312 16.125 -27.84375 C 17.34375 -26.75 18 -24.921875 18.09375 -22.359375 C 18.125 -21.941406 18.144531 -21.265625 18.15625 -20.328125 C 18.175781 -19.390625 18.175781 -18.328125 18.15625 -17.140625 C 18.144531 -15.960938 18.109375 -14.796875 18.046875 -13.640625 L 7.515625 -13.640625 C 7.515625 -12.441406 7.519531 -11.242188 7.53125 -10.046875 C 7.550781 -8.847656 7.578125 -7.601562 7.609375 -6.3125 C 7.609375 -5.300781 7.828125 -4.59375 8.265625 -4.1875 C 8.703125 -3.789062 9.40625 -3.59375 10.375 -3.59375 C 11.25 -3.59375 11.890625 -3.789062 12.296875 -4.1875 C 12.703125 -4.59375 12.921875 -5.300781 12.953125 -6.3125 C 13.015625 -7.34375 13.015625 -8.78125 12.953125 -10.625 Z M 10.328125 -25.515625 C 9.359375 -25.515625 8.660156 -25.3125 8.234375 -24.90625 C 7.816406 -24.507812 7.609375 -23.859375 7.609375 -22.953125 C 7.578125 -21.910156 7.550781 -20.945312 7.53125 -20.0625 C 7.519531 -19.175781 7.515625 -18.28125 7.515625 -17.375 L 13 -17.375 C 13.03125 -18.664062 13.035156 -19.8125 13.015625 -20.8125 C 13.003906 -21.8125 12.984375 -22.523438 12.953125 -22.953125 C 12.921875 -23.859375 12.703125 -24.507812 12.296875 -24.90625 C 11.890625 -25.3125 11.234375 -25.515625 10.328125 -25.515625 Z M 10.328125 -25.515625 "/></g></g></g><g fill="#000000" fill-opacity="1"><g transform="translate(305.239825, 106.539528)"><g><path d="M 2.234375 0 L 2.234375 -29.109375 L 7.515625 -29.109375 L 7.515625 -26.25 L 8.484375 -26.25 C 9.035156 -27.28125 9.660156 -28.078125 10.359375 -28.640625 C 11.054688 -29.210938 12.050781 -29.5 13.34375 -29.5 C 15.125 -29.5 16.488281 -28.960938 17.4375 -27.890625 C 18.394531 -26.828125 18.875 -25.050781 18.875 -22.5625 L 18.875 0 L 13.640625 0 L 13.640625 -22.953125 C 13.640625 -24.722656 12.828125 -25.609375 11.203125 -25.609375 C 10.460938 -25.609375 9.734375 -25.378906 9.015625 -24.921875 C 8.304688 -24.472656 7.804688 -23.863281 7.515625 -23.09375 L 7.515625 0 Z M 2.234375 0 "/></g></g></g><g fill="#000000" fill-opacity="1"><g transform="translate(325.47292, 106.539528)"><g><path d="M 12.65625 0.390625 C 9.65625 0.390625 7.539062 -0.164062 6.3125 -1.28125 C 5.082031 -2.394531 4.46875 -4.25 4.46875 -6.84375 L 4.46875 -25.078125 L 2.09375 -25.078125 L 2.09375 -29.109375 L 4.515625 -29.109375 L 4.515625 -37.359375 L 9.890625 -37.359375 L 9.796875 -29.109375 L 14.40625 -29.109375 L 14.40625 -25.078125 L 9.703125 -25.078125 L 9.703125 -6.3125 C 9.703125 -5.269531 9.882812 -4.546875 10.25 -4.140625 C 10.625 -3.742188 11.425781 -3.546875 12.65625 -3.546875 C 13.082031 -3.546875 13.457031 -3.5625 13.78125 -3.59375 C 14.101562 -3.625 14.472656 -3.640625 14.890625 -3.640625 L 14.890625 0.140625 C 14.566406 0.242188 14.210938 0.3125 13.828125 0.34375 C 13.441406 0.375 13.050781 0.390625 12.65625 0.390625 Z M 12.65625 0.390625 "/></g></g></g><path fill="#a6a6a6" d="M 52.015625 11.703125 L 106.042969 11.703125 C 115.125 11.703125 122.488281 19.066406 122.488281 28.148438 L 122.488281 89.234375 C 122.488281 98.316406 115.125 105.679688 106.042969 105.679688 L 52.015625 105.679688 C 42.933594 105.679688 35.570312 98.316406 35.570312 89.234375 L 35.570312 28.148438 C 35.570312 19.066406 42.933594 11.703125 52.015625 11.703125 Z M 52.015625 11.703125 " fill-opacity="1" fill-rule="nonzero"/><g fill="#88d499" fill-opacity="1"><g transform="translate(45.620305, 81.777613)"><g/></g></g><g fill="#88d499" fill-opacity="1"><g transform="translate(58.983313, 81.777613)"><g/></g></g><g fill="#88d499" fill-opacity="1"><g transform="translate(72.346321, 81.777613)"><g/></g></g><g fill="#88d499" fill-opacity="1"><g transform="translate(85.709329, 81.777613)"><g/></g></g><g fill="#88d499" fill-opacity="1"><g transform="translate(99.072336, 81.777613)"><g/></g></g><path fill="#00bf63" d="M 45.632812 71.566406 C 47.652344 70.671875 49.085938 68.75 49.679688 66.152344 C 50.296875 63.445312 49.929688 60.355469 48.644531 57.457031 C 47.359375 54.554688 45.316406 52.207031 42.894531 50.847656 C 41.503906 50.066406 40.09375 49.675781 38.75 49.675781 C 37.847656 49.675781 36.976562 49.851562 36.164062 50.210938 C 31.894531 52.105469 30.542969 58.433594 33.15625 64.324219 C 34.441406 67.222656 36.484375 69.570312 38.902344 70.929688 C 41.226562 72.234375 43.617188 72.460938 45.632812 71.566406 " fill-opacity="1" fill-rule="nonzero"/><g clip-path="url(#c76a814be9)"><path fill="#00bf63" d="M 129.554688 37.855469 L 111.113281 37.855469 C 110.546875 37.855469 110.089844 37.398438 110.089844 36.832031 L 110.089844 18.390625 C 110.089844 17.128906 109.066406 16.105469 107.804688 16.105469 L 87.792969 16.105469 C 86.53125 16.105469 85.507812 17.128906 85.507812 18.390625 L 85.507812 36.832031 C 85.507812 37.398438 85.050781 37.855469 84.484375 37.855469 L 76.183594 37.855469 C 76.207031 37.902344 76.226562 37.949219 76.25 37.996094 C 76.367188 38.230469 76.480469 38.46875 76.585938 38.714844 C 76.609375 38.769531 76.632812 38.820312 76.65625 38.875 C 76.785156 39.179688 76.90625 39.488281 77.019531 39.804688 L 77.039062 39.855469 C 77.152344 40.175781 77.257812 40.503906 77.355469 40.835938 L 77.367188 40.871094 C 77.566406 41.546875 77.726562 42.246094 77.851562 42.96875 C 77.855469 42.992188 77.859375 43.015625 77.863281 43.039062 C 77.921875 43.394531 77.976562 43.75 78.015625 44.113281 L 78.015625 44.128906 C 78.054688 44.457031 78.082031 44.785156 78.101562 45.121094 C 78.105469 45.195312 78.109375 45.273438 78.113281 45.351562 C 78.132812 45.691406 78.144531 46.035156 78.144531 46.378906 C 78.144531 54.914062 72.839844 61.859375 66.316406 61.859375 C 65.996094 61.859375 65.679688 61.835938 65.363281 61.800781 C 65.332031 61.800781 65.300781 61.796875 65.265625 61.792969 C 64.941406 61.753906 64.617188 61.699219 64.296875 61.628906 C 64.714844 62.125 65.34375 62.4375 66.042969 62.4375 L 80.667969 62.4375 C 80.703125 61.964844 80.753906 61.488281 80.832031 61.011719 C 80.835938 60.984375 80.839844 60.953125 80.84375 60.925781 C 80.914062 60.488281 81.003906 60.054688 81.113281 59.617188 C 81.125 59.558594 81.140625 59.496094 81.15625 59.4375 C 81.257812 59.035156 81.375 58.636719 81.507812 58.242188 C 81.535156 58.160156 81.558594 58.078125 81.585938 57.996094 C 81.746094 57.535156 81.921875 57.078125 82.125 56.628906 C 83.40625 53.742188 85.363281 51.324219 87.710938 49.710938 C 88.046875 49.480469 88.386719 49.265625 88.738281 49.070312 C 91.636719 47.441406 94.675781 47.183594 97.296875 48.347656 C 102.59375 50.695312 104.410156 58.234375 101.34375 65.148438 C 99.882812 68.449219 97.53125 71.136719 94.730469 72.710938 C 94.402344 72.894531 94.074219 73.054688 93.742188 73.203125 C 93.683594 73.230469 93.628906 73.257812 93.570312 73.28125 C 93.257812 73.417969 92.9375 73.535156 92.621094 73.640625 C 92.558594 73.660156 92.496094 73.679688 92.433594 73.699219 C 92.109375 73.800781 91.785156 73.886719 91.464844 73.953125 C 91.433594 73.960938 91.402344 73.964844 91.367188 73.96875 C 91.058594 74.03125 90.75 74.074219 90.441406 74.101562 C 90.394531 74.109375 90.347656 74.113281 90.304688 74.117188 C 90.0625 74.136719 89.824219 74.148438 89.585938 74.148438 C 89.527344 74.148438 89.46875 74.140625 89.40625 74.140625 C 89.289062 74.136719 89.171875 74.128906 89.050781 74.121094 C 88.835938 74.109375 88.621094 74.085938 88.410156 74.058594 C 88.289062 74.042969 88.171875 74.023438 88.054688 74.003906 C 87.832031 73.960938 87.613281 73.910156 87.398438 73.851562 C 87.296875 73.824219 87.195312 73.804688 87.097656 73.773438 C 86.785156 73.675781 86.476562 73.566406 86.171875 73.433594 C 85.945312 73.332031 85.722656 73.21875 85.507812 73.097656 L 85.507812 77.800781 C 85.824219 77.96875 86.136719 78.144531 86.4375 78.335938 C 86.457031 78.347656 86.480469 78.359375 86.5 78.371094 C 86.746094 78.527344 86.984375 78.695312 87.21875 78.863281 C 87.296875 78.921875 87.378906 78.972656 87.453125 79.03125 C 87.605469 79.148438 87.75 79.273438 87.898438 79.394531 C 88.046875 79.519531 88.199219 79.640625 88.34375 79.769531 C 88.390625 79.8125 88.433594 79.859375 88.480469 79.902344 C 89.773438 81.105469 90.824219 82.550781 91.5625 84.1875 L 107.804688 84.1875 C 109.066406 84.1875 110.089844 83.164062 110.089844 81.902344 L 110.089844 63.457031 C 110.089844 62.894531 110.546875 62.4375 111.113281 62.4375 L 129.554688 62.4375 C 130.816406 62.4375 131.839844 61.414062 131.839844 60.152344 L 131.839844 40.140625 C 131.839844 38.878906 130.816406 37.855469 129.554688 37.855469 " fill-opacity="1" fill-rule="nonzero"/></g><path fill="#00bf63" d="M 85.195312 70.328125 C 85.429688 70.558594 85.679688 70.761719 85.9375 70.945312 C 86 70.992188 86.0625 71.039062 86.125 71.082031 C 86.21875 71.140625 86.308594 71.195312 86.402344 71.253906 C 86.597656 71.363281 86.792969 71.476562 87 71.566406 C 89.015625 72.460938 91.40625 72.234375 93.730469 70.929688 C 96.152344 69.570312 98.191406 67.222656 99.480469 64.324219 C 102.089844 58.433594 100.738281 52.105469 96.46875 50.210938 C 96.238281 50.109375 96 50.027344 95.761719 49.953125 C 95.683594 49.929688 95.605469 49.910156 95.527344 49.890625 C 95.359375 49.847656 95.195312 49.808594 95.023438 49.777344 C 94.933594 49.761719 94.84375 49.75 94.75 49.738281 C 94.582031 49.714844 94.410156 49.699219 94.238281 49.691406 C 94.152344 49.6875 94.070312 49.679688 93.984375 49.679688 C 93.878906 49.675781 93.769531 49.6875 93.660156 49.691406 C 93.445312 49.695312 93.230469 49.710938 93.011719 49.738281 C 92.898438 49.75 92.777344 49.769531 92.660156 49.792969 C 92.453125 49.828125 92.246094 49.871094 92.039062 49.925781 C 91.917969 49.953125 91.800781 49.984375 91.683594 50.019531 C 91.460938 50.085938 91.242188 50.167969 91.019531 50.253906 C 90.914062 50.292969 90.8125 50.328125 90.707031 50.375 C 90.382812 50.511719 90.058594 50.667969 89.738281 50.847656 C 87.316406 52.207031 85.277344 54.554688 83.988281 57.457031 C 83.851562 57.765625 83.730469 58.078125 83.613281 58.394531 C 83.570312 58.507812 83.53125 58.625 83.492188 58.738281 C 83.425781 58.929688 83.367188 59.121094 83.308594 59.316406 C 83.203125 59.65625 83.109375 60.003906 83.035156 60.351562 C 83.027344 60.382812 83.015625 60.414062 83.011719 60.445312 C 82.792969 61.453125 82.675781 62.464844 82.675781 63.460938 L 82.671875 63.488281 C 82.671875 64.402344 82.757812 65.296875 82.953125 66.152344 C 83.347656 67.871094 84.117188 69.289062 85.175781 70.316406 L 85.195312 70.328125 " fill-opacity="1" fill-rule="nonzero"/><path fill="#00bf63" d="M 63.132812 59.070312 L 63.171875 59.082031 C 63.421875 59.203125 63.675781 59.304688 63.929688 59.394531 L 63.96875 59.410156 C 64.191406 59.484375 64.414062 59.546875 64.636719 59.605469 C 64.746094 59.628906 64.851562 59.652344 64.957031 59.671875 C 65.117188 59.703125 65.277344 59.734375 65.441406 59.753906 C 65.730469 59.789062 66.019531 59.816406 66.316406 59.816406 C 71.714844 59.816406 76.101562 53.789062 76.101562 46.378906 C 76.101562 45.945312 76.085938 45.515625 76.054688 45.089844 C 76.039062 44.867188 76.011719 44.648438 75.988281 44.429688 C 75.96875 44.238281 75.949219 44.042969 75.921875 43.851562 C 75.882812 43.5625 75.828125 43.273438 75.773438 42.988281 C 75.753906 42.882812 75.738281 42.773438 75.714844 42.667969 C 75.644531 42.335938 75.5625 42.007812 75.472656 41.683594 C 75.460938 41.632812 75.449219 41.582031 75.433594 41.53125 C 75.332031 41.171875 75.214844 40.8125 75.089844 40.464844 L 75.085938 40.449219 C 74.6875 39.351562 74.179688 38.324219 73.566406 37.394531 L 73.550781 37.359375 C 71.757812 34.652344 69.183594 32.941406 66.316406 32.941406 C 60.921875 32.941406 56.53125 38.96875 56.53125 46.378906 C 56.53125 52.257812 59.296875 57.25 63.132812 59.070312 " fill-opacity="1" fill-rule="nonzero"/><g clip-path="url(#dc839a18aa)"><path fill="#00bf63" d="M 89.585938 84.804688 C 89.515625 84.65625 89.441406 84.511719 89.367188 84.371094 C 89.269531 84.1875 89.167969 84.011719 89.058594 83.835938 C 89 83.734375 88.941406 83.636719 88.878906 83.539062 C 87.902344 82.042969 86.582031 80.773438 85.035156 79.875 C 84.71875 79.6875 84.394531 79.519531 84.0625 79.367188 L 84.050781 79.363281 C 83.707031 79.203125 83.351562 79.058594 82.988281 78.933594 C 80.496094 78.09375 78.542969 76.160156 77.757812 73.769531 C 76.222656 69.089844 71.878906 65.945312 66.949219 65.945312 C 62.019531 65.945312 57.675781 69.089844 56.140625 73.769531 C 55.355469 76.160156 53.402344 78.09375 50.910156 78.933594 C 46.054688 80.574219 42.886719 85.304688 43.207031 90.4375 C 43.5625 96.148438 48.324219 100.820312 54.046875 101.070312 C 58.757812 101.296875 63.03125 98.632812 64.945312 94.335938 C 65.253906 93.648438 66.019531 93.222656 66.949219 93.222656 C 67.878906 93.222656 68.644531 93.648438 68.953125 94.335938 C 70.867188 98.632812 75.15625 101.296875 79.851562 101.070312 C 85.574219 100.820312 90.335938 96.148438 90.691406 90.4375 C 90.804688 88.617188 90.472656 86.847656 89.785156 85.25 C 89.722656 85.097656 89.65625 84.949219 89.585938 84.804688 " fill-opacity="1" fill-rule="nonzero"/></g><path fill="#000000" d="M 35.273438 47.621094 C 34.507812 47.621094 33.777344 47.773438 33.105469 48.074219 C 29.351562 49.738281 28.234375 55.460938 30.613281 60.832031 C 31.8125 63.53125 33.699219 65.710938 35.925781 66.960938 C 37.964844 68.105469 40.027344 68.316406 41.742188 67.554688 C 43.457031 66.792969 44.6875 65.121094 45.207031 62.847656 C 45.773438 60.355469 45.429688 57.496094 44.230469 54.796875 C 43.035156 52.09375 41.148438 49.917969 38.917969 48.667969 C 37.683594 47.972656 36.457031 47.621094 35.273438 47.621094 Z M 39.570312 70.054688 C 38.054688 70.054688 36.472656 69.617188 34.925781 68.746094 C 32.3125 67.28125 30.117188 64.765625 28.742188 61.664062 C 25.902344 55.257812 27.488281 48.320312 32.273438 46.199219 C 33.210938 45.785156 34.21875 45.574219 35.273438 45.574219 C 36.8125 45.574219 38.378906 46.011719 39.921875 46.878906 C 42.53125 48.347656 44.726562 50.863281 46.105469 53.964844 C 47.480469 57.066406 47.871094 60.382812 47.203125 63.304688 C 46.535156 66.222656 44.890625 68.398438 42.574219 69.425781 C 41.625 69.847656 40.613281 70.054688 39.570312 70.054688 " fill-opacity="1" fill-rule="nonzero"/><path fill="#000000" d="M 88.730469 80.085938 L 104.328125 80.085938 C 105.023438 80.085938 105.589844 79.523438 105.589844 78.828125 L 105.589844 60.382812 C 105.589844 59.257812 106.507812 58.339844 107.632812 58.339844 L 126.078125 58.339844 C 126.773438 58.339844 127.339844 57.773438 127.339844 57.078125 L 127.339844 37.0625 C 127.339844 36.367188 126.773438 35.800781 126.078125 35.800781 L 107.632812 35.800781 C 106.507812 35.800781 105.589844 34.886719 105.589844 33.757812 L 105.589844 15.316406 C 105.589844 14.617188 105.023438 14.054688 104.328125 14.054688 L 84.3125 14.054688 C 83.617188 14.054688 83.054688 14.617188 83.054688 15.316406 L 83.054688 33.757812 C 83.054688 34.886719 82.136719 35.800781 81.007812 35.800781 L 74.289062 35.800781 C 74.363281 35.996094 74.4375 36.1875 74.507812 36.382812 L 74.523438 36.425781 C 74.644531 36.769531 74.757812 37.117188 74.863281 37.46875 L 74.875 37.515625 C 75.082031 38.21875 75.253906 38.964844 75.382812 39.71875 L 75.394531 39.792969 C 75.464844 40.1875 75.515625 40.558594 75.558594 40.925781 L 75.558594 40.949219 C 75.59375 41.261719 75.625 41.601562 75.644531 41.980469 C 75.652344 42.0625 75.65625 42.140625 75.660156 42.222656 C 75.679688 42.632812 75.691406 42.976562 75.691406 43.304688 C 75.691406 49.980469 72.589844 55.742188 68.136719 58.339844 L 76.261719 58.339844 C 76.285156 58.152344 76.3125 57.964844 76.34375 57.777344 L 76.355469 57.6875 C 76.433594 57.21875 76.527344 56.753906 76.640625 56.296875 L 76.65625 56.234375 C 76.664062 56.191406 76.675781 56.152344 76.683594 56.109375 C 76.789062 55.699219 76.917969 55.273438 77.058594 54.839844 C 77.070312 54.816406 77.078125 54.789062 77.085938 54.757812 C 77.105469 54.699219 77.121094 54.640625 77.144531 54.582031 C 77.324219 54.058594 77.511719 53.585938 77.710938 53.136719 C 79.070312 50.066406 81.125 47.527344 83.652344 45.789062 C 84.011719 45.542969 84.386719 45.3125 84.761719 45.101562 C 87.949219 43.3125 91.3125 43.039062 94.234375 44.332031 C 100.050781 46.914062 102.101562 55.058594 98.804688 62.488281 C 97.25 65.992188 94.746094 68.847656 91.753906 70.527344 C 91.429688 70.707031 91.082031 70.882812 90.6875 71.0625 L 90.628906 71.089844 C 90.585938 71.109375 90.542969 71.125 90.5 71.144531 C 90.164062 71.289062 89.816406 71.421875 89.464844 71.539062 C 89.414062 71.554688 89.363281 71.570312 89.3125 71.585938 L 89.261719 71.601562 C 88.871094 71.722656 88.523438 71.8125 88.195312 71.878906 C 88.164062 71.886719 88.132812 71.890625 88.101562 71.898438 C 87.753906 71.964844 87.410156 72.015625 87.0625 72.046875 L 87.023438 72.050781 C 86.984375 72.054688 86.945312 72.058594 86.90625 72.0625 C 86.554688 72.089844 86.242188 72.113281 85.9375 72.089844 L 85.90625 72.085938 C 85.792969 72.085938 85.679688 72.078125 85.5625 72.070312 L 85.511719 72.070312 C 85.269531 72.054688 85.027344 72.027344 84.792969 71.996094 C 84.660156 71.976562 84.527344 71.957031 84.394531 71.9375 C 84.167969 71.894531 83.933594 71.839844 83.65625 71.765625 L 83.5625 71.742188 C 83.480469 71.722656 83.398438 71.703125 83.320312 71.675781 C 83.226562 71.648438 83.140625 71.621094 83.054688 71.589844 L 83.054688 74.117188 C 83.207031 74.207031 83.355469 74.296875 83.503906 74.390625 C 83.523438 74.402344 83.546875 74.414062 83.570312 74.429688 C 83.800781 74.578125 84.039062 74.742188 84.34375 74.960938 L 84.425781 75.015625 C 84.480469 75.058594 84.539062 75.097656 84.59375 75.140625 C 84.730469 75.242188 84.859375 75.347656 84.984375 75.453125 L 85.175781 75.613281 C 85.304688 75.71875 85.429688 75.824219 85.554688 75.933594 C 85.59375 75.972656 85.628906 76.007812 85.664062 76.042969 L 85.707031 76.082031 C 86.953125 77.242188 87.96875 78.589844 88.730469 80.085938 Z M 104.328125 82.136719 L 88.085938 82.136719 C 87.683594 82.136719 87.316406 81.902344 87.152344 81.535156 C 86.476562 80.039062 85.519531 78.707031 84.304688 77.578125 C 84.273438 77.550781 84.246094 77.523438 84.222656 77.496094 L 84.175781 77.453125 C 84.082031 77.367188 83.980469 77.28125 83.875 77.199219 L 83.664062 77.023438 C 83.5625 76.9375 83.460938 76.851562 83.355469 76.769531 C 83.324219 76.75 83.289062 76.722656 83.253906 76.699219 C 83.214844 76.671875 83.179688 76.644531 83.140625 76.617188 C 82.871094 76.421875 82.667969 76.28125 82.476562 76.160156 L 82.421875 76.128906 C 82.136719 75.949219 81.847656 75.785156 81.558594 75.636719 C 81.21875 75.457031 81.003906 75.109375 81.003906 74.726562 L 81.003906 70.023438 C 81.003906 69.65625 81.199219 69.320312 81.511719 69.136719 C 81.828125 68.953125 82.214844 68.949219 82.53125 69.128906 C 82.71875 69.234375 82.914062 69.332031 83.109375 69.417969 C 83.355469 69.527344 83.621094 69.625 83.921875 69.71875 C 83.96875 69.734375 84.015625 69.742188 84.0625 69.753906 C 84.101562 69.765625 84.144531 69.777344 84.1875 69.785156 C 84.40625 69.847656 84.589844 69.890625 84.761719 69.917969 C 84.863281 69.9375 84.96875 69.953125 85.070312 69.96875 C 85.253906 69.992188 85.445312 70.011719 85.640625 70.023438 L 85.691406 70.027344 C 85.777344 70.03125 85.863281 70.039062 85.949219 70.039062 C 85.996094 70.039062 86.039062 70.042969 86.082031 70.046875 L 86.117188 70.046875 C 86.304688 70.046875 86.511719 70.039062 86.742188 70.019531 L 86.867188 70.007812 C 87.148438 69.980469 87.429688 69.941406 87.695312 69.890625 C 87.722656 69.882812 87.746094 69.878906 87.769531 69.875 C 88.046875 69.820312 88.332031 69.746094 88.652344 69.644531 L 88.707031 69.628906 C 88.746094 69.617188 88.785156 69.605469 88.824219 69.59375 C 89.117188 69.496094 89.40625 69.386719 89.6875 69.265625 L 89.84375 69.191406 C 90.1875 69.039062 90.484375 68.890625 90.75 68.742188 C 93.363281 67.273438 95.558594 64.761719 96.929688 61.660156 C 99.769531 55.257812 98.1875 48.328125 93.402344 46.207031 C 91.085938 45.179688 88.375 45.421875 85.761719 46.886719 C 85.441406 47.066406 85.121094 47.265625 84.8125 47.480469 C 82.597656 49 80.792969 51.246094 79.582031 53.96875 C 79.40625 54.367188 79.242188 54.789062 79.078125 55.257812 C 79.066406 55.289062 79.054688 55.324219 79.046875 55.359375 C 79.03125 55.402344 79.019531 55.445312 79.003906 55.488281 C 78.875 55.875 78.761719 56.253906 78.667969 56.617188 L 78.628906 56.785156 C 78.53125 57.191406 78.445312 57.605469 78.378906 58.015625 L 78.367188 58.09375 C 78.296875 58.546875 78.242188 58.996094 78.214844 59.433594 C 78.175781 59.96875 77.730469 60.386719 77.191406 60.386719 L 62.566406 60.386719 C 61.589844 60.386719 60.667969 59.957031 60.039062 59.214844 C 59.753906 58.875 59.714844 58.394531 59.945312 58.019531 C 60.171875 57.644531 60.617188 57.457031 61.046875 57.550781 C 61.335938 57.617188 61.625 57.667969 61.910156 57.699219 L 61.996094 57.707031 C 62.308594 57.742188 62.585938 57.757812 62.839844 57.757812 C 68.796875 57.757812 73.644531 51.273438 73.644531 43.304688 C 73.644531 43.011719 73.632812 42.703125 73.613281 42.328125 C 73.609375 42.253906 73.605469 42.179688 73.601562 42.109375 C 73.582031 41.761719 73.554688 41.457031 73.523438 41.167969 L 73.519531 41.144531 C 73.484375 40.828125 73.4375 40.492188 73.375 40.132812 L 73.363281 40.070312 C 73.246094 39.386719 73.09375 38.71875 72.90625 38.082031 L 72.894531 38.035156 C 72.804688 37.734375 72.703125 37.421875 72.597656 37.125 L 72.582031 37.085938 C 72.472656 36.78125 72.359375 36.488281 72.238281 36.203125 L 72.167969 36.046875 C 72.070312 35.820312 71.964844 35.59375 71.855469 35.375 C 71.839844 35.339844 71.824219 35.308594 71.808594 35.273438 L 71.792969 35.238281 C 71.636719 34.921875 71.652344 34.542969 71.839844 34.242188 C 72.027344 33.941406 72.355469 33.753906 72.707031 33.753906 L 81.007812 33.753906 L 81.003906 15.316406 C 81.003906 13.488281 82.488281 12.003906 84.3125 12.003906 L 104.328125 12.003906 C 106.152344 12.003906 107.636719 13.488281 107.636719 15.316406 L 107.636719 33.757812 L 126.078125 33.753906 C 127.902344 33.753906 129.386719 35.238281 129.386719 37.0625 L 129.386719 57.078125 C 129.386719 58.902344 127.902344 60.386719 126.078125 60.386719 L 107.632812 60.386719 L 107.636719 78.828125 C 107.636719 80.652344 106.152344 82.136719 104.328125 82.136719 " fill-opacity="1" fill-rule="nonzero"/><path fill="#000000" d="M 78.171875 60.378906 L 78.171875 60.386719 Z M 83.058594 67.039062 L 83.125 67.085938 C 83.152344 67.105469 83.179688 67.128906 83.210938 67.148438 C 83.292969 67.203125 83.371094 67.25 83.449219 67.296875 C 83.601562 67.382812 83.769531 67.480469 83.9375 67.554688 C 85.652344 68.3125 87.71875 68.101562 89.75 66.960938 C 91.980469 65.710938 93.867188 63.53125 95.066406 60.832031 C 97.445312 55.460938 96.332031 49.738281 92.578125 48.074219 C 92.40625 47.996094 92.210938 47.925781 91.984375 47.855469 C 91.953125 47.847656 91.914062 47.835938 91.878906 47.828125 L 91.789062 47.804688 C 91.636719 47.765625 91.5 47.734375 91.367188 47.710938 C 91.292969 47.699219 91.214844 47.6875 91.140625 47.675781 C 91.007812 47.660156 90.867188 47.648438 90.707031 47.636719 L 90.621094 47.632812 C 90.578125 47.632812 90.535156 47.628906 90.492188 47.628906 C 90.441406 47.625 90.398438 47.628906 90.351562 47.632812 C 90.304688 47.632812 90.261719 47.636719 90.21875 47.636719 C 90.003906 47.644531 89.828125 47.65625 89.660156 47.679688 C 89.5625 47.691406 89.460938 47.707031 89.355469 47.726562 C 89.179688 47.753906 88.996094 47.792969 88.8125 47.839844 C 88.703125 47.867188 88.601562 47.894531 88.5 47.925781 C 88.332031 47.976562 88.144531 48.042969 87.914062 48.132812 C 87.871094 48.148438 87.828125 48.164062 87.785156 48.179688 C 87.734375 48.199219 87.6875 48.214844 87.636719 48.238281 C 87.316406 48.375 87.03125 48.515625 86.761719 48.667969 C 84.535156 49.917969 82.648438 52.09375 81.449219 54.796875 C 81.339844 55.042969 81.230469 55.3125 81.097656 55.675781 C 81.058594 55.78125 81.019531 55.886719 80.984375 55.996094 C 80.921875 56.175781 80.867188 56.355469 80.8125 56.535156 C 80.707031 56.882812 80.621094 57.199219 80.554688 57.5 L 80.535156 57.589844 C 80.328125 58.53125 80.222656 59.472656 80.222656 60.386719 C 80.222656 60.410156 80.222656 60.433594 80.21875 60.457031 C 80.222656 61.316406 80.308594 62.121094 80.476562 62.847656 C 80.8125 64.320312 81.464844 65.566406 82.367188 66.464844 C 82.394531 66.484375 82.417969 66.507812 82.441406 66.53125 C 82.617188 66.699219 82.820312 66.867188 83.058594 67.039062 Z M 86.109375 70.054688 C 85.066406 70.054688 84.054688 69.847656 83.109375 69.425781 C 82.851562 69.3125 82.621094 69.183594 82.410156 69.0625 C 82.292969 68.992188 82.1875 68.925781 82.082031 68.855469 C 82.03125 68.824219 81.972656 68.785156 81.917969 68.742188 L 81.867188 68.707031 L 81.859375 68.699219 C 81.5625 68.484375 81.296875 68.265625 81.050781 68.035156 L 81 67.988281 C 79.773438 66.800781 78.90625 65.1875 78.476562 63.304688 C 78.273438 62.414062 78.171875 61.441406 78.171875 60.414062 L 78.171875 60.390625 C 78.171875 60.375 78.171875 60.355469 78.175781 60.335938 C 78.179688 59.289062 78.300781 58.21875 78.53125 57.152344 C 78.539062 57.125 78.542969 57.097656 78.550781 57.070312 L 78.558594 57.042969 C 78.632812 56.707031 78.730469 56.34375 78.851562 55.945312 C 78.914062 55.738281 78.976562 55.53125 79.046875 55.328125 C 79.085938 55.210938 79.128906 55.085938 79.175781 54.964844 C 79.324219 54.558594 79.449219 54.253906 79.578125 53.964844 C 80.953125 50.863281 83.148438 48.347656 85.757812 46.878906 C 86.089844 46.695312 86.4375 46.523438 86.824219 46.355469 C 86.910156 46.320312 86.992188 46.289062 87.074219 46.257812 L 87.171875 46.222656 C 87.453125 46.113281 87.6875 46.03125 87.910156 45.964844 C 88.039062 45.925781 88.167969 45.890625 88.296875 45.859375 C 88.546875 45.796875 88.78125 45.746094 89.011719 45.707031 C 89.144531 45.683594 89.277344 45.660156 89.410156 45.644531 C 89.640625 45.617188 89.875 45.601562 90.152344 45.589844 L 90.246094 45.585938 C 90.335938 45.582031 90.429688 45.578125 90.519531 45.578125 C 90.597656 45.582031 90.671875 45.585938 90.75 45.589844 L 90.816406 45.59375 C 91.027344 45.605469 91.222656 45.621094 91.410156 45.644531 C 91.515625 45.660156 91.621094 45.675781 91.722656 45.695312 C 91.910156 45.726562 92.101562 45.769531 92.308594 45.824219 L 92.375 45.839844 C 92.445312 45.859375 92.515625 45.875 92.582031 45.898438 C 92.890625 45.992188 93.160156 46.089844 93.40625 46.199219 C 98.195312 48.320312 99.777344 55.257812 96.9375 61.660156 C 95.5625 64.765625 93.367188 67.28125 90.753906 68.746094 C 89.207031 69.613281 87.625 70.054688 86.109375 70.054688 " fill-opacity="1" fill-rule="nonzero"/><path fill="#000000" d="M 70.945312 33.753906 L 70.945312 33.757812 Z M 60.039062 55.042969 C 60.066406 55.050781 60.09375 55.066406 60.128906 55.078125 C 60.34375 55.179688 60.566406 55.273438 60.792969 55.351562 L 60.808594 55.359375 L 60.828125 55.367188 C 61 55.425781 61.183594 55.476562 61.40625 55.535156 C 61.488281 55.554688 61.582031 55.570312 61.671875 55.589844 C 61.832031 55.621094 61.96875 55.648438 62.09375 55.664062 C 62.386719 55.699219 62.625 55.714844 62.839844 55.714844 C 67.671875 55.714844 71.601562 50.148438 71.601562 43.304688 C 71.601562 42.917969 71.585938 42.519531 71.554688 42.085938 C 71.546875 41.933594 71.527344 41.785156 71.511719 41.632812 L 71.476562 41.304688 C 71.460938 41.175781 71.449219 41.042969 71.433594 40.917969 C 71.390625 40.632812 71.339844 40.347656 71.292969 40.105469 L 71.269531 39.980469 C 71.257812 39.921875 71.246094 39.859375 71.234375 39.800781 C 71.171875 39.507812 71.097656 39.195312 71.007812 38.878906 L 70.972656 38.738281 C 70.871094 38.390625 70.765625 38.054688 70.652344 37.738281 L 70.640625 37.710938 C 70.273438 36.691406 69.796875 35.738281 69.234375 34.882812 C 69.210938 34.847656 69.195312 34.816406 69.179688 34.789062 C 67.515625 32.308594 65.210938 30.890625 62.839844 30.890625 C 58.007812 30.890625 54.078125 36.457031 54.078125 43.304688 C 54.078125 48.605469 56.472656 53.3125 60.039062 55.042969 Z M 59.65625 55.996094 Z M 62.839844 57.765625 C 62.539062 57.765625 62.222656 57.742188 61.839844 57.695312 C 61.640625 57.671875 61.460938 57.636719 61.277344 57.601562 C 61.164062 57.578125 61.042969 57.554688 60.925781 57.523438 C 60.628906 57.453125 60.386719 57.378906 60.152344 57.300781 L 60.113281 57.285156 L 60.453125 56.320312 L 60.113281 57.285156 C 59.839844 57.1875 59.570312 57.078125 59.3125 56.960938 C 59.289062 56.953125 59.269531 56.945312 59.25 56.9375 L 59.214844 56.921875 C 54.917969 54.878906 52.03125 49.40625 52.03125 43.304688 C 52.03125 35.328125 56.878906 28.839844 62.839844 28.839844 C 65.925781 28.839844 68.875 30.617188 70.925781 33.71875 L 70.953125 33.757812 C 70.960938 33.777344 70.972656 33.792969 70.980469 33.8125 C 71.617188 34.785156 72.152344 35.867188 72.570312 37.023438 L 72.578125 37.050781 C 72.707031 37.402344 72.828125 37.78125 72.941406 38.175781 C 72.953125 38.214844 72.960938 38.253906 72.972656 38.289062 L 72.984375 38.339844 C 73.082031 38.691406 73.167969 39.042969 73.238281 39.378906 C 73.257812 39.457031 73.269531 39.539062 73.285156 39.617188 L 73.304688 39.722656 C 73.355469 39.984375 73.414062 40.300781 73.460938 40.632812 C 73.480469 40.789062 73.496094 40.941406 73.515625 41.097656 L 73.546875 41.402344 C 73.566406 41.582031 73.585938 41.761719 73.601562 41.941406 C 73.632812 42.425781 73.648438 42.871094 73.648438 43.304688 C 73.648438 51.277344 68.800781 57.765625 62.839844 57.765625 " fill-opacity="1" fill-rule="nonzero"/><path fill="#000000" d="M 63.472656 89.121094 C 64.8125 89.121094 65.9375 89.78125 66.410156 90.84375 C 68.160156 94.769531 72.054688 97.171875 76.328125 96.972656 C 81.539062 96.742188 85.871094 92.496094 86.191406 87.296875 C 86.292969 85.679688 86.015625 84.089844 85.367188 82.578125 C 85.308594 82.441406 85.25 82.304688 85.1875 82.171875 C 85.121094 82.035156 85.054688 81.90625 84.984375 81.777344 C 84.898438 81.613281 84.804688 81.449219 84.707031 81.292969 L 84.671875 81.226562 C 84.628906 81.160156 84.585938 81.085938 84.542969 81.019531 C 83.652344 79.652344 82.445312 78.5 81.050781 77.6875 L 81.042969 77.683594 C 80.757812 77.515625 80.457031 77.359375 80.15625 77.222656 L 80.109375 77.199219 C 79.769531 77.046875 79.46875 76.925781 79.183594 76.828125 C 76.386719 75.882812 74.191406 73.710938 73.308594 71.015625 C 71.910156 66.753906 67.957031 63.894531 63.472656 63.894531 C 58.984375 63.894531 55.035156 66.753906 53.636719 71.015625 C 52.753906 73.710938 50.554688 75.882812 47.761719 76.828125 C 43.34375 78.320312 40.460938 82.628906 40.753906 87.296875 C 41.074219 92.496094 45.40625 96.742188 50.613281 96.972656 C 54.894531 97.171875 58.78125 94.769531 60.535156 90.839844 C 61.007812 89.78125 62.132812 89.121094 63.472656 89.121094 Z M 75.816406 99.03125 C 70.9375 99.03125 66.554688 96.195312 64.539062 91.675781 C 64.402344 91.367188 63.980469 91.167969 63.472656 91.167969 C 62.960938 91.167969 62.542969 91.367188 62.40625 91.675781 C 60.308594 96.382812 55.648438 99.265625 50.519531 99.015625 C 44.285156 98.746094 39.09375 93.652344 38.707031 87.425781 C 38.359375 81.832031 41.8125 76.679688 47.105469 74.886719 C 49.292969 74.148438 51.007812 72.460938 51.691406 70.375 C 53.363281 65.273438 58.097656 61.84375 63.472656 61.84375 C 68.847656 61.84375 73.582031 65.273438 75.253906 70.375 C 75.9375 72.460938 77.652344 74.148438 79.839844 74.886719 C 80.203125 75.011719 80.570312 75.160156 81 75.355469 L 81.050781 75.378906 C 81.390625 75.535156 81.734375 75.714844 82.066406 75.90625 L 82.074219 75.910156 C 83.746094 76.886719 85.191406 78.265625 86.257812 79.902344 C 86.316406 79.996094 86.371094 80.082031 86.425781 80.171875 L 86.460938 80.230469 C 86.574219 80.417969 86.6875 80.613281 86.792969 80.808594 C 86.875 80.96875 86.957031 81.125 87.035156 81.285156 C 87.109375 81.441406 87.179688 81.605469 87.25 81.769531 C 88.015625 83.554688 88.355469 85.511719 88.234375 87.425781 C 87.851562 93.652344 82.660156 98.746094 76.421875 99.015625 C 76.21875 99.027344 76.015625 99.03125 75.816406 99.03125 " fill-opacity="1" fill-rule="nonzero"/></svg>