<svg xmlns="http://www.w3.org/2000/svg" xmlns:xlink="http://www.w3.org/1999/xlink" width="500" zoomAndPan="magnify" viewBox="0 0 375 374.999991" height="500" preserveAspectRatio="xMidYMid meet" version="1.0"><defs><g/><clipPath id="fb39944bc9"><path d="M 145 63 L 337.859375 63 L 337.859375 258 L 145 258 Z M 145 63 " clip-rule="nonzero"/></clipPath><clipPath id="571d6baf1f"><path d="M 85 205 L 221 205 L 221 305.464844 L 85 305.464844 Z M 85 205 " clip-rule="nonzero"/></clipPath><clipPath id="3f9e5a1b49"><path d="M 132 51.964844 L 331 51.964844 L 331 252 L 132 252 Z M 132 51.964844 " clip-rule="nonzero"/></clipPath></defs><path fill="#a6a6a6" d="M 96.359375 36.339844 L 270.15625 36.339844 C 299.375 36.339844 323.0625 60.027344 323.0625 89.246094 L 323.0625 285.753906 C 323.0625 314.972656 299.375 338.660156 270.15625 338.660156 L 96.359375 338.660156 C 67.140625 338.660156 43.453125 314.972656 43.453125 285.753906 L 43.453125 89.246094 C 43.453125 60.027344 67.140625 36.339844 96.359375 36.339844 Z M 96.359375 36.339844 " fill-opacity="1" fill-rule="nonzero"/><g fill="#88d499" fill-opacity="1"><g transform="translate(75.787584, 261.764687)"><g/></g></g><g fill="#88d499" fill-opacity="1"><g transform="translate(118.774985, 261.764687)"><g/></g></g><g fill="#88d499" fill-opacity="1"><g transform="translate(161.762387, 261.764687)"><g/></g></g><g fill="#88d499" fill-opacity="1"><g transform="translate(204.749788, 261.764687)"><g/></g></g><g fill="#88d499" fill-opacity="1"><g transform="translate(247.73719, 261.764687)"><g/></g></g><path fill="#00bf63" d="M 92.523438 221.199219 C 98.253906 218.65625 102.335938 213.195312 104.023438 205.8125 C 105.777344 198.125 104.730469 189.351562 101.078125 181.109375 C 97.421875 172.867188 91.621094 166.199219 84.746094 162.339844 C 80.796875 160.121094 76.78125 159 72.964844 159 C 70.402344 159 67.925781 159.507812 65.621094 160.527344 C 53.492188 165.910156 49.652344 183.890625 57.070312 200.617188 C 60.726562 208.863281 66.523438 215.527344 73.398438 219.386719 C 80.003906 223.097656 86.796875 223.738281 92.523438 221.199219 " fill-opacity="1" fill-rule="nonzero"/><g clip-path="url(#fb39944bc9)"><path fill="#00bf63" d="M 330.949219 125.421875 L 278.550781 125.421875 C 276.949219 125.421875 275.648438 124.121094 275.648438 122.519531 L 275.648438 70.121094 C 275.648438 66.542969 272.738281 63.628906 269.15625 63.628906 L 212.296875 63.628906 C 208.714844 63.628906 205.804688 66.542969 205.804688 70.121094 L 205.804688 122.519531 C 205.804688 124.121094 204.503906 125.421875 202.90625 125.421875 L 179.320312 125.421875 C 179.386719 125.550781 179.445312 125.691406 179.511719 125.824219 C 179.839844 126.492188 180.15625 127.171875 180.457031 127.863281 C 180.523438 128.015625 180.59375 128.167969 180.660156 128.320312 C 181.027344 129.183594 181.371094 130.066406 181.699219 130.960938 L 181.746094 131.109375 C 182.074219 132.019531 182.371094 132.949219 182.648438 133.886719 L 182.675781 133.988281 C 183.242188 135.910156 183.699219 137.902344 184.054688 139.945312 C 184.0625 140.011719 184.078125 140.078125 184.089844 140.148438 C 184.261719 141.15625 184.40625 142.175781 184.523438 143.207031 L 184.527344 143.246094 C 184.632812 144.175781 184.707031 145.113281 184.765625 146.0625 C 184.78125 146.28125 184.792969 146.5 184.804688 146.71875 C 184.851562 147.6875 184.886719 148.65625 184.886719 149.640625 C 184.886719 173.886719 169.8125 193.617188 151.289062 193.617188 C 150.375 193.617188 149.472656 193.554688 148.578125 193.457031 C 148.488281 193.449219 148.394531 193.441406 148.304688 193.429688 C 147.375 193.324219 146.457031 193.164062 145.546875 192.960938 C 146.738281 194.371094 148.519531 195.265625 150.503906 195.265625 L 192.058594 195.265625 C 192.152344 193.921875 192.308594 192.566406 192.523438 191.210938 C 192.535156 191.128906 192.546875 191.050781 192.558594 190.972656 C 192.761719 189.730469 193.015625 188.492188 193.320312 187.25 C 193.359375 187.078125 193.398438 186.90625 193.441406 186.734375 C 193.734375 185.597656 194.070312 184.46875 194.449219 183.339844 C 194.523438 183.105469 194.589844 182.875 194.671875 182.644531 C 195.125 181.339844 195.625 180.039062 196.195312 178.757812 C 199.832031 170.554688 205.398438 163.683594 212.066406 159.105469 C 213.015625 158.449219 213.992188 157.839844 214.988281 157.28125 C 223.226562 152.660156 231.859375 151.929688 239.296875 155.226562 C 254.355469 161.902344 259.515625 183.320312 250.800781 202.96875 C 246.644531 212.347656 239.972656 219.976562 232.011719 224.445312 C 231.082031 224.964844 230.144531 225.421875 229.203125 225.847656 C 229.039062 225.921875 228.878906 226 228.71875 226.070312 C 227.820312 226.457031 226.921875 226.792969 226.023438 227.089844 C 225.84375 227.148438 225.664062 227.207031 225.480469 227.261719 C 224.5625 227.542969 223.648438 227.792969 222.734375 227.980469 C 222.644531 227.996094 222.550781 228.007812 222.460938 228.027344 C 221.578125 228.199219 220.699219 228.324219 219.824219 228.40625 C 219.695312 228.417969 219.5625 228.4375 219.433594 228.449219 C 218.753906 228.503906 218.074219 228.535156 217.402344 228.535156 C 217.226562 228.535156 217.058594 228.511719 216.882812 228.507812 C 216.546875 228.503906 216.214844 228.480469 215.878906 228.457031 C 215.265625 228.421875 214.65625 228.359375 214.050781 228.277344 C 213.714844 228.230469 213.382812 228.179688 213.050781 228.121094 C 212.417969 228.007812 211.792969 227.859375 211.175781 227.691406 C 210.890625 227.617188 210.605469 227.554688 210.324219 227.46875 C 209.4375 227.191406 208.558594 226.878906 207.699219 226.5 C 207.054688 226.214844 206.425781 225.898438 205.804688 225.546875 L 205.804688 238.914062 C 206.710938 239.382812 207.59375 239.890625 208.453125 240.429688 C 208.511719 240.460938 208.570312 240.496094 208.628906 240.53125 C 209.328125 240.972656 210.003906 241.449219 210.667969 241.933594 C 210.890625 242.09375 211.121094 242.246094 211.339844 242.410156 C 211.773438 242.742188 212.183594 243.09375 212.601562 243.445312 C 213.027344 243.796875 213.457031 244.140625 213.867188 244.507812 C 214 244.628906 214.125 244.761719 214.257812 244.886719 C 217.925781 248.300781 220.914062 252.40625 223.011719 257.058594 L 269.15625 257.058594 C 272.738281 257.058594 275.648438 254.144531 275.648438 250.5625 L 275.648438 198.164062 C 275.648438 196.5625 276.949219 195.265625 278.550781 195.265625 L 330.949219 195.265625 C 334.53125 195.265625 337.441406 192.355469 337.441406 188.773438 L 337.441406 131.914062 C 337.441406 128.332031 334.53125 125.421875 330.949219 125.421875 " fill-opacity="1" fill-rule="nonzero"/></g><path fill="#00bf63" d="M 204.917969 217.683594 C 205.59375 218.335938 206.300781 218.914062 207.027344 219.433594 C 207.207031 219.5625 207.382812 219.695312 207.566406 219.816406 C 207.824219 219.988281 208.089844 220.148438 208.351562 220.304688 C 208.90625 220.625 209.460938 220.9375 210.050781 221.199219 C 215.777344 223.738281 222.566406 223.097656 229.171875 219.386719 C 236.046875 215.527344 241.847656 208.863281 245.503906 200.617188 C 252.917969 183.890625 249.082031 165.910156 236.949219 160.527344 C 236.292969 160.238281 235.621094 160 234.941406 159.792969 C 234.722656 159.726562 234.496094 159.675781 234.273438 159.617188 C 233.800781 159.496094 233.328125 159.386719 232.84375 159.300781 C 232.585938 159.253906 232.332031 159.214844 232.070312 159.179688 C 231.589844 159.117188 231.105469 159.078125 230.617188 159.050781 C 230.371094 159.039062 230.132812 159.015625 229.890625 159.015625 C 229.585938 159.011719 229.277344 159.039062 228.972656 159.046875 C 228.363281 159.066406 227.75 159.105469 227.132812 159.179688 C 226.800781 159.21875 226.46875 159.277344 226.132812 159.332031 C 225.546875 159.433594 224.957031 159.5625 224.363281 159.710938 C 224.027344 159.796875 223.6875 159.882812 223.351562 159.984375 C 222.726562 160.171875 222.09375 160.402344 221.464844 160.644531 C 221.171875 160.761719 220.875 160.859375 220.578125 160.988281 C 219.660156 161.382812 218.742188 161.824219 217.828125 162.339844 C 210.949219 166.199219 205.152344 172.867188 201.496094 181.109375 C 201.105469 181.992188 200.757812 182.882812 200.425781 183.777344 C 200.304688 184.101562 200.191406 184.429688 200.078125 184.753906 C 199.890625 185.300781 199.722656 185.84375 199.558594 186.390625 C 199.265625 187.367188 199 188.34375 198.777344 189.332031 C 198.757812 189.421875 198.734375 189.515625 198.710938 189.605469 C 198.09375 192.460938 197.765625 195.34375 197.761719 198.171875 L 197.753906 198.25 C 197.753906 200.839844 198 203.382812 198.554688 205.8125 C 199.667969 210.707031 201.855469 214.730469 204.863281 217.644531 L 204.917969 217.683594 " fill-opacity="1" fill-rule="nonzero"/><path fill="#00bf63" d="M 142.238281 185.699219 L 142.347656 185.734375 C 143.0625 186.070312 143.78125 186.363281 144.503906 186.617188 L 144.609375 186.660156 C 145.246094 186.875 145.882812 187.054688 146.519531 187.214844 C 146.816406 187.285156 147.121094 187.34375 147.421875 187.402344 C 147.878906 187.496094 148.335938 187.582031 148.796875 187.644531 C 149.617188 187.742188 150.445312 187.816406 151.289062 187.816406 C 166.617188 187.816406 179.085938 170.691406 179.085938 149.640625 C 179.085938 148.402344 179.039062 147.183594 178.953125 145.972656 C 178.90625 145.34375 178.828125 144.722656 178.761719 144.101562 C 178.703125 143.554688 178.652344 143 178.578125 142.460938 C 178.460938 141.632812 178.3125 140.816406 178.15625 140.007812 C 178.097656 139.703125 178.046875 139.394531 177.984375 139.09375 C 177.785156 138.148438 177.554688 137.21875 177.304688 136.296875 C 177.261719 136.15625 177.226562 136.011719 177.1875 135.871094 C 176.894531 134.84375 176.570312 133.828125 176.214844 132.839844 L 176.199219 132.796875 C 175.066406 129.679688 173.621094 126.757812 171.878906 124.113281 L 171.832031 124.011719 C 166.742188 116.324219 159.429688 111.464844 151.289062 111.464844 C 135.957031 111.464844 123.484375 128.589844 123.484375 149.640625 C 123.484375 166.335938 131.34375 180.527344 142.238281 185.699219 " fill-opacity="1" fill-rule="nonzero"/><g clip-path="url(#571d6baf1f)"><path fill="#00bf63" d="M 217.394531 258.804688 C 217.199219 258.390625 216.988281 257.980469 216.769531 257.574219 C 216.492188 257.058594 216.203125 256.550781 215.898438 256.050781 C 215.730469 255.773438 215.5625 255.488281 215.386719 255.214844 C 212.617188 250.960938 208.867188 247.359375 204.46875 244.796875 L 204.464844 244.796875 C 203.570312 244.277344 202.644531 243.796875 201.699219 243.363281 L 201.671875 243.34375 C 200.691406 242.898438 199.6875 242.480469 198.648438 242.128906 C 191.570312 239.738281 186.015625 234.253906 183.789062 227.460938 C 179.429688 214.160156 167.089844 205.226562 153.082031 205.226562 C 139.074219 205.226562 126.734375 214.160156 122.375 227.460938 C 120.148438 234.253906 114.589844 239.738281 107.515625 242.128906 C 93.722656 246.792969 84.722656 260.234375 85.628906 274.8125 C 86.636719 291.042969 100.164062 304.3125 116.421875 305.023438 C 129.808594 305.664062 141.949219 298.097656 147.394531 285.886719 C 148.261719 283.933594 150.441406 282.722656 153.082031 282.71875 C 155.722656 282.71875 157.902344 283.933594 158.773438 285.886719 C 164.214844 298.09375 176.402344 305.660156 189.742188 305.023438 C 206 304.3125 219.527344 291.042969 220.535156 274.8125 C 220.855469 269.636719 219.910156 264.617188 217.964844 260.070312 C 217.78125 259.648438 217.597656 259.222656 217.394531 258.804688 " fill-opacity="1" fill-rule="nonzero"/></g><path fill="#000000" d="M 63.085938 153.171875 C 60.910156 153.171875 58.835938 153.601562 56.925781 154.449219 C 46.257812 159.179688 43.085938 175.441406 49.851562 190.699219 C 53.253906 198.375 58.617188 204.558594 64.949219 208.109375 C 70.730469 211.363281 76.597656 211.960938 81.464844 209.800781 C 86.335938 207.640625 89.832031 202.890625 91.304688 196.425781 C 92.921875 189.347656 91.941406 181.222656 88.535156 173.550781 C 85.136719 165.875 79.773438 159.691406 73.445312 156.136719 C 69.9375 154.171875 66.453125 153.171875 63.085938 153.171875 Z M 75.296875 216.90625 C 70.992188 216.90625 66.492188 215.65625 62.097656 213.1875 C 54.679688 209.023438 48.441406 201.875 44.53125 193.0625 C 36.464844 174.867188 40.964844 155.160156 54.566406 149.128906 C 57.222656 147.949219 60.089844 147.351562 63.085938 147.351562 C 67.464844 147.351562 71.90625 148.601562 76.292969 151.0625 C 83.710938 155.230469 89.953125 162.378906 93.859375 171.191406 C 97.765625 180.003906 98.875 189.425781 96.980469 197.722656 C 95.085938 206.019531 90.414062 212.199219 83.828125 215.121094 C 81.140625 216.3125 78.261719 216.90625 75.296875 216.90625 " fill-opacity="1" fill-rule="nonzero"/><g clip-path="url(#3f9e5a1b49)"><path fill="#000000" d="M 214.964844 245.40625 L 259.28125 245.40625 C 261.253906 245.40625 262.863281 243.800781 262.863281 241.828125 L 262.863281 189.425781 C 262.863281 186.222656 265.46875 183.617188 268.671875 183.617188 L 321.070312 183.617188 C 323.042969 183.617188 324.65625 182.007812 324.65625 180.035156 L 324.65625 123.171875 C 324.65625 121.199219 323.042969 119.589844 321.070312 119.589844 L 268.671875 119.589844 C 265.46875 119.589844 262.863281 116.984375 262.863281 113.78125 L 262.863281 61.382812 C 262.863281 59.40625 261.253906 57.800781 259.28125 57.800781 L 202.417969 57.800781 C 200.441406 57.800781 198.835938 59.40625 198.835938 61.382812 L 198.835938 113.78125 C 198.835938 116.984375 196.230469 119.589844 193.027344 119.589844 L 173.933594 119.589844 C 174.148438 120.136719 174.359375 120.6875 174.558594 121.238281 L 174.601562 121.363281 C 174.949219 122.339844 175.269531 123.324219 175.5625 124.328125 L 175.601562 124.460938 C 176.1875 126.457031 176.671875 128.574219 177.042969 130.710938 L 177.082031 130.925781 C 177.269531 132.054688 177.421875 133.105469 177.539062 134.144531 L 177.542969 134.210938 C 177.644531 135.101562 177.726562 136.066406 177.792969 137.144531 C 177.804688 137.371094 177.820312 137.601562 177.832031 137.832031 C 177.890625 138.996094 177.917969 139.96875 177.917969 140.902344 C 177.917969 159.871094 169.101562 176.242188 156.457031 183.617188 L 179.542969 183.617188 C 179.609375 183.085938 179.6875 182.550781 179.769531 182.019531 L 179.808594 181.765625 C 180.027344 180.441406 180.296875 179.113281 180.617188 177.820312 L 180.65625 177.640625 C 180.683594 177.519531 180.710938 177.402344 180.742188 177.28125 C 181.042969 176.113281 181.398438 174.90625 181.808594 173.679688 C 181.832031 173.609375 181.855469 173.527344 181.882812 173.449219 C 181.933594 173.28125 181.984375 173.113281 182.042969 172.945312 C 182.5625 171.457031 183.089844 170.117188 183.65625 168.839844 C 187.523438 160.117188 193.359375 152.898438 200.539062 147.964844 C 201.5625 147.261719 202.621094 146.605469 203.683594 146.007812 C 212.742188 140.921875 222.300781 140.148438 230.601562 143.828125 C 247.125 151.15625 252.949219 174.296875 243.585938 195.410156 C 239.171875 205.359375 232.058594 213.46875 223.558594 218.242188 C 222.636719 218.757812 221.648438 219.253906 220.523438 219.761719 L 220.355469 219.839844 C 220.234375 219.894531 220.113281 219.949219 219.996094 220 C 219.039062 220.414062 218.046875 220.789062 217.054688 221.117188 C 216.910156 221.164062 216.765625 221.207031 216.617188 221.253906 L 216.46875 221.300781 C 215.367188 221.640625 214.378906 221.898438 213.441406 222.089844 C 213.355469 222.109375 213.265625 222.125 213.175781 222.136719 C 212.195312 222.328125 211.210938 222.46875 210.222656 222.5625 L 210.113281 222.578125 C 210.003906 222.589844 209.894531 222.601562 209.78125 222.609375 C 208.78125 222.691406 207.894531 222.746094 207.035156 222.6875 L 206.9375 222.679688 C 206.617188 222.671875 206.292969 222.65625 205.96875 222.632812 L 205.824219 222.625 C 205.128906 222.582031 204.4375 222.515625 203.773438 222.421875 C 203.394531 222.367188 203.023438 222.3125 202.648438 222.246094 C 202 222.128906 201.332031 221.976562 200.546875 221.765625 L 200.285156 221.699219 C 200.050781 221.640625 199.820312 221.582031 199.59375 221.511719 C 199.332031 221.429688 199.082031 221.351562 198.835938 221.269531 L 198.835938 228.449219 C 199.265625 228.699219 199.695312 228.957031 200.121094 229.222656 C 200.175781 229.253906 200.238281 229.289062 200.300781 229.328125 C 200.964844 229.75 201.640625 230.214844 202.503906 230.84375 L 202.730469 231.003906 C 202.894531 231.117188 203.054688 231.230469 203.214844 231.347656 C 203.601562 231.644531 203.960938 231.945312 204.320312 232.246094 L 204.863281 232.699219 C 205.226562 232.996094 205.589844 233.296875 205.9375 233.609375 C 206.050781 233.710938 206.152344 233.8125 206.257812 233.914062 L 206.371094 234.027344 C 209.910156 237.324219 212.800781 241.148438 214.964844 245.40625 Z M 259.28125 251.226562 L 213.132812 251.226562 C 211.988281 251.226562 210.949219 250.558594 210.480469 249.515625 C 208.566406 245.269531 205.84375 241.488281 202.394531 238.277344 C 202.308594 238.195312 202.230469 238.117188 202.15625 238.042969 L 202.023438 237.917969 C 201.757812 237.675781 201.464844 237.4375 201.175781 237.199219 L 200.574219 236.703125 C 200.285156 236.460938 199.996094 236.214844 199.695312 235.988281 C 199.609375 235.921875 199.511719 235.851562 199.40625 235.78125 C 199.300781 235.703125 199.191406 235.628906 199.082031 235.550781 C 198.320312 234.996094 197.738281 234.597656 197.195312 234.25 L 197.042969 234.164062 C 196.226562 233.652344 195.40625 233.179688 194.582031 232.757812 C 193.621094 232.253906 193.015625 231.261719 193.015625 230.171875 L 193.015625 216.808594 C 193.015625 215.773438 193.5625 214.816406 194.457031 214.296875 C 195.351562 213.773438 196.453125 213.765625 197.351562 214.273438 C 197.886719 214.574219 198.441406 214.851562 199 215.101562 C 199.691406 215.40625 200.445312 215.683594 201.304688 215.949219 C 201.433594 215.988281 201.566406 216.019531 201.699219 216.050781 C 201.816406 216.082031 201.933594 216.113281 202.050781 216.144531 C 202.679688 216.3125 203.203125 216.433594 203.691406 216.519531 C 203.980469 216.574219 204.277344 216.617188 204.570312 216.65625 C 205.089844 216.726562 205.632812 216.78125 206.179688 216.816406 L 206.332031 216.824219 C 206.578125 216.839844 206.820312 216.855469 207.066406 216.863281 C 207.195312 216.863281 207.320312 216.875 207.441406 216.878906 L 207.539062 216.886719 C 208.074219 216.886719 208.660156 216.863281 209.320312 216.808594 L 209.667969 216.769531 C 210.472656 216.695312 211.265625 216.578125 212.027344 216.433594 C 212.097656 216.417969 212.167969 216.40625 212.238281 216.394531 C 213.023438 216.234375 213.832031 216.023438 214.746094 215.742188 L 214.898438 215.691406 C 215.007812 215.660156 215.121094 215.628906 215.230469 215.589844 C 216.066406 215.316406 216.890625 215.003906 217.6875 214.660156 L 218.132812 214.453125 C 219.097656 214.019531 219.941406 213.597656 220.707031 213.167969 C 228.121094 209.003906 234.359375 201.863281 238.265625 193.050781 C 246.324219 174.867188 241.828125 155.171875 228.242188 149.148438 C 221.660156 146.230469 213.953125 146.917969 206.535156 151.082031 C 205.625 151.59375 204.714844 152.160156 203.835938 152.761719 C 197.546875 157.085938 192.40625 163.460938 188.976562 171.199219 C 188.476562 172.332031 188.003906 173.527344 187.539062 174.867188 C 187.503906 174.957031 187.476562 175.050781 187.449219 175.148438 C 187.410156 175.269531 187.371094 175.394531 187.332031 175.515625 C 186.964844 176.617188 186.644531 177.695312 186.382812 178.722656 L 186.265625 179.203125 C 185.984375 180.355469 185.746094 181.53125 185.554688 182.703125 L 185.519531 182.921875 C 185.316406 184.207031 185.171875 185.484375 185.085938 186.726562 C 184.980469 188.253906 183.710938 189.4375 182.183594 189.4375 L 140.628906 189.4375 C 137.859375 189.4375 135.242188 188.21875 133.449219 186.101562 C 132.640625 185.144531 132.53125 183.78125 133.179688 182.710938 C 133.832031 181.640625 135.089844 181.109375 136.308594 181.382812 C 137.132812 181.566406 137.957031 181.710938 138.761719 181.800781 L 139.007812 181.828125 C 139.898438 181.921875 140.683594 181.964844 141.40625 181.964844 C 158.332031 181.964844 172.097656 163.542969 172.097656 140.902344 C 172.097656 140.070312 172.074219 139.191406 172.019531 138.128906 C 172.007812 137.921875 171.996094 137.710938 171.984375 137.503906 C 171.925781 136.523438 171.847656 135.652344 171.757812 134.832031 L 171.75 134.765625 C 171.648438 133.867188 171.515625 132.914062 171.34375 131.890625 L 171.308594 131.71875 C 170.976562 129.777344 170.539062 127.878906 170.007812 126.0625 L 169.96875 125.9375 C 169.714844 125.074219 169.429688 124.191406 169.128906 123.347656 L 169.089844 123.238281 C 168.78125 122.375 168.453125 121.539062 168.105469 120.726562 L 167.914062 120.289062 C 167.632812 119.640625 167.332031 118.996094 167.023438 118.375 C 166.976562 118.277344 166.933594 118.183594 166.890625 118.089844 L 166.84375 117.988281 C 166.398438 117.085938 166.445312 116.011719 166.976562 115.15625 C 167.507812 114.300781 168.4375 113.769531 169.445312 113.769531 L 193.027344 113.769531 L 193.015625 61.382812 C 193.015625 56.195312 197.234375 51.980469 202.417969 51.980469 L 259.28125 51.980469 C 264.464844 51.980469 268.683594 56.195312 268.683594 61.382812 L 268.683594 113.78125 L 321.070312 113.769531 C 326.253906 113.769531 330.476562 117.988281 330.476562 123.171875 L 330.476562 180.035156 C 330.476562 185.21875 326.253906 189.4375 321.070312 189.4375 L 268.671875 189.4375 L 268.683594 241.828125 C 268.683594 247.011719 264.464844 251.226562 259.28125 251.226562 " fill-opacity="1" fill-rule="nonzero"/></g><path fill="#000000" d="M 184.972656 189.417969 L 184.972656 189.433594 Z M 198.851562 208.339844 L 199.035156 208.46875 C 199.113281 208.53125 199.195312 208.589844 199.28125 208.644531 C 199.519531 208.800781 199.738281 208.933594 199.957031 209.0625 C 200.386719 209.316406 200.875 209.585938 201.351562 209.800781 C 206.21875 211.957031 212.085938 211.359375 217.867188 208.109375 C 224.199219 204.558594 229.5625 198.375 232.964844 190.699219 C 239.726562 175.441406 236.558594 159.179688 225.890625 154.449219 C 225.40625 154.234375 224.859375 154.035156 224.214844 153.839844 C 224.117188 153.808594 224.015625 153.785156 223.910156 153.757812 L 223.65625 153.691406 C 223.21875 153.578125 222.828125 153.492188 222.460938 153.425781 C 222.246094 153.390625 222.027344 153.355469 221.8125 153.328125 C 221.429688 153.277344 221.03125 153.242188 220.582031 153.21875 L 220.335938 153.203125 C 220.214844 153.199219 220.09375 153.1875 219.96875 153.1875 C 219.828125 153.179688 219.703125 153.191406 219.566406 153.199219 C 219.441406 153.207031 219.3125 153.214844 219.1875 153.21875 C 218.582031 153.234375 218.078125 153.273438 217.609375 153.328125 C 217.324219 153.367188 217.035156 153.414062 216.746094 153.464844 C 216.242188 153.550781 215.722656 153.660156 215.199219 153.792969 C 214.882812 153.871094 214.597656 153.945312 214.316406 154.03125 C 213.832031 154.175781 213.300781 154.363281 212.644531 154.621094 C 212.523438 154.667969 212.402344 154.710938 212.28125 154.753906 C 212.140625 154.808594 211.996094 154.859375 211.851562 154.921875 C 210.945312 155.3125 210.132812 155.710938 209.371094 156.136719 C 203.042969 159.691406 197.679688 165.875 194.277344 173.550781 C 193.96875 174.253906 193.660156 175.023438 193.277344 176.046875 C 193.167969 176.351562 193.058594 176.652344 192.953125 176.957031 C 192.777344 177.476562 192.621094 177.984375 192.464844 178.496094 C 192.167969 179.484375 191.929688 180.382812 191.738281 181.230469 L 191.679688 181.488281 C 191.097656 184.160156 190.796875 186.835938 190.792969 189.4375 C 190.792969 189.5 190.789062 189.570312 190.785156 189.636719 C 190.792969 192.078125 191.039062 194.359375 191.511719 196.425781 C 192.46875 200.609375 194.324219 204.15625 196.890625 206.699219 C 196.960938 206.761719 197.03125 206.820312 197.097656 206.886719 C 197.59375 207.367188 198.179688 207.851562 198.851562 208.339844 Z M 207.519531 216.902344 C 204.554688 216.902344 201.679688 216.3125 198.992188 215.121094 C 198.261719 214.796875 197.609375 214.429688 197.007812 214.082031 C 196.679688 213.886719 196.375 213.703125 196.074219 213.5 C 195.933594 213.410156 195.769531 213.292969 195.613281 213.175781 L 195.464844 213.070312 L 195.445312 213.054688 C 194.601562 212.445312 193.847656 211.824219 193.148438 211.164062 L 193 211.03125 C 189.519531 207.660156 187.058594 203.070312 185.835938 197.722656 C 185.261719 195.195312 184.96875 192.433594 184.964844 189.511719 L 184.964844 189.445312 C 184.96875 189.398438 184.96875 189.347656 184.972656 189.292969 C 184.988281 186.316406 185.332031 183.273438 185.992188 180.246094 C 186.007812 180.171875 186.027344 180.09375 186.046875 180.015625 L 186.066406 179.941406 C 186.28125 178.976562 186.554688 177.949219 186.894531 176.816406 C 187.070312 176.226562 187.25 175.644531 187.449219 175.066406 C 187.566406 174.726562 187.691406 174.375 187.820312 174.027344 C 188.246094 172.882812 188.59375 172.011719 188.957031 171.191406 C 192.863281 162.378906 199.101562 155.230469 206.523438 151.0625 C 207.460938 150.535156 208.453125 150.046875 209.550781 149.574219 C 209.789062 149.472656 210.023438 149.382812 210.265625 149.296875 L 210.535156 149.195312 C 211.335938 148.882812 212 148.652344 212.632812 148.460938 C 213 148.347656 213.363281 148.253906 213.734375 148.160156 C 214.4375 147.980469 215.109375 147.839844 215.765625 147.726562 C 216.144531 147.660156 216.523438 147.601562 216.894531 147.550781 C 217.546875 147.472656 218.214844 147.425781 219 147.398438 L 219.269531 147.386719 C 219.53125 147.375 219.789062 147.363281 220.050781 147.367188 C 220.269531 147.371094 220.484375 147.382812 220.695312 147.394531 L 220.894531 147.40625 C 221.492188 147.4375 222.039062 147.488281 222.574219 147.558594 C 222.875 147.597656 223.171875 147.644531 223.472656 147.695312 C 224 147.789062 224.542969 147.910156 225.132812 148.0625 L 225.320312 148.113281 C 225.515625 148.160156 225.714844 148.210938 225.910156 148.269531 C 226.785156 148.535156 227.546875 148.816406 228.25 149.128906 C 241.847656 155.160156 246.351562 174.867188 238.285156 193.058594 C 234.375 201.875 228.136719 209.023438 220.71875 213.1875 C 216.324219 215.65625 211.824219 216.902344 207.519531 216.902344 " fill-opacity="1" fill-rule="nonzero"/><path fill="#000000" d="M 164.429688 113.769531 L 164.4375 113.78125 Z M 133.445312 174.253906 C 133.523438 174.28125 133.609375 174.316406 133.703125 174.359375 C 134.3125 174.648438 134.949219 174.90625 135.59375 175.136719 L 135.609375 175.140625 L 135.632812 175.148438 L 135.691406 175.171875 C 136.175781 175.339844 136.699219 175.492188 137.335938 175.648438 C 137.570312 175.703125 137.832031 175.757812 138.089844 175.804688 C 138.542969 175.894531 138.929688 175.972656 139.289062 176.019531 C 140.117188 176.117188 140.796875 176.167969 141.40625 176.167969 C 155.132812 176.167969 166.300781 160.347656 166.300781 140.902344 C 166.300781 139.808594 166.257812 138.675781 166.171875 137.4375 C 166.140625 137.011719 166.09375 136.585938 166.042969 136.15625 L 165.941406 135.226562 C 165.90625 134.855469 165.867188 134.484375 165.816406 134.121094 C 165.703125 133.308594 165.550781 132.5 165.421875 131.820312 L 165.355469 131.460938 C 165.324219 131.289062 165.292969 131.121094 165.257812 130.953125 C 165.082031 130.117188 164.863281 129.234375 164.617188 128.332031 L 164.511719 127.925781 C 164.226562 126.9375 163.921875 125.984375 163.597656 125.089844 L 163.570312 125.007812 C 162.523438 122.121094 161.171875 119.40625 159.570312 116.976562 C 159.511719 116.882812 159.460938 116.792969 159.417969 116.710938 C 154.691406 109.667969 148.140625 105.632812 141.40625 105.632812 C 127.683594 105.632812 116.515625 121.453125 116.515625 140.902344 C 116.515625 155.964844 123.3125 169.335938 133.445312 174.253906 Z M 132.359375 176.960938 L 132.363281 176.960938 Z M 141.40625 181.988281 C 140.554688 181.988281 139.648438 181.925781 138.5625 181.792969 C 138 181.71875 137.488281 181.621094 136.972656 181.519531 C 136.652344 181.457031 136.304688 181.386719 135.964844 181.304688 C 135.121094 181.097656 134.433594 180.894531 133.777344 180.667969 L 133.660156 180.628906 L 134.625 177.878906 L 133.65625 180.625 C 132.882812 180.351562 132.117188 180.039062 131.386719 179.703125 C 131.320312 179.679688 131.261719 179.65625 131.210938 179.632812 L 131.109375 179.589844 C 118.898438 173.792969 110.695312 158.246094 110.695312 140.902344 C 110.695312 118.246094 124.472656 99.8125 141.40625 99.8125 C 150.179688 99.8125 158.550781 104.863281 164.378906 113.664062 L 164.457031 113.785156 C 164.484375 113.832031 164.511719 113.882812 164.539062 113.933594 C 166.34375 116.703125 167.859375 119.773438 169.054688 123.066406 L 169.078125 123.132812 C 169.4375 124.132812 169.789062 125.214844 170.109375 126.332031 C 170.136719 126.441406 170.167969 126.550781 170.195312 126.65625 L 170.234375 126.800781 C 170.507812 127.800781 170.75 128.796875 170.953125 129.75 C 171 129.976562 171.042969 130.203125 171.082031 130.429688 L 171.136719 130.726562 C 171.28125 131.46875 171.445312 132.367188 171.582031 133.3125 C 171.640625 133.753906 171.6875 134.195312 171.734375 134.632812 L 171.828125 135.503906 C 171.882812 136.011719 171.941406 136.515625 171.980469 137.027344 C 172.074219 138.410156 172.121094 139.671875 172.121094 140.902344 C 172.121094 163.554688 158.34375 181.988281 141.40625 181.988281 " fill-opacity="1" fill-rule="nonzero"/><path fill="#000000" d="M 143.199219 271.070312 C 147.007812 271.070312 150.207031 272.945312 151.550781 275.964844 C 156.527344 287.125 167.589844 293.949219 179.722656 293.375 C 194.527344 292.730469 206.835938 280.65625 207.75 265.894531 C 208.039062 261.289062 207.25 256.777344 205.414062 252.480469 C 205.246094 252.09375 205.078125 251.707031 204.894531 251.332031 C 204.710938 250.945312 204.519531 250.574219 204.324219 250.203125 C 204.078125 249.742188 203.8125 249.28125 203.535156 248.828125 L 203.429688 248.648438 C 203.308594 248.449219 203.1875 248.25 203.0625 248.054688 C 200.535156 244.171875 197.105469 240.898438 193.148438 238.589844 L 193.125 238.574219 C 192.308594 238.101562 191.464844 237.660156 190.609375 237.269531 L 190.464844 237.199219 C 189.503906 236.765625 188.65625 236.425781 187.839844 236.148438 C 179.898438 233.464844 173.660156 227.289062 171.144531 219.632812 L 171.144531 219.628906 C 167.179688 207.527344 155.949219 199.398438 143.203125 199.398438 C 130.457031 199.398438 119.230469 207.527344 115.257812 219.628906 C 112.75 227.289062 106.507812 233.464844 98.570312 236.148438 C 86.019531 240.390625 77.832031 252.625 78.652344 265.894531 C 79.570312 280.65625 91.878906 292.730469 106.671875 293.375 C 118.832031 293.949219 129.878906 287.121094 134.855469 275.960938 C 136.199219 272.949219 139.398438 271.074219 143.199219 271.070312 Z M 178.269531 299.234375 C 164.414062 299.234375 151.960938 291.171875 146.234375 278.332031 C 145.84375 277.457031 144.652344 276.890625 143.203125 276.890625 C 141.753906 276.894531 140.5625 277.457031 140.171875 278.332031 C 134.214844 291.699219 120.96875 299.894531 106.40625 299.1875 C 88.691406 298.417969 73.945312 283.949219 72.84375 266.253906 C 71.859375 250.367188 81.671875 235.71875 96.707031 230.632812 C 102.917969 228.535156 107.785156 223.742188 109.730469 217.816406 C 114.484375 203.320312 127.9375 193.578125 143.203125 193.578125 C 158.472656 193.578125 171.925781 203.320312 176.679688 217.816406 C 178.621094 223.742188 183.488281 228.535156 189.703125 230.632812 C 190.738281 230.984375 191.785156 231.40625 193 231.960938 L 193.152344 232.035156 C 194.117188 232.476562 195.089844 232.984375 196.03125 233.53125 L 196.054688 233.542969 C 200.800781 236.308594 204.914062 240.230469 207.945312 244.886719 C 208.109375 245.144531 208.261719 245.394531 208.414062 245.648438 L 208.511719 245.808594 C 208.839844 246.34375 209.15625 246.902344 209.457031 247.460938 C 209.695312 247.910156 209.925781 248.355469 210.144531 248.8125 C 210.359375 249.257812 210.5625 249.722656 210.761719 250.1875 C 212.929688 255.261719 213.898438 260.816406 213.5625 266.253906 C 212.460938 283.949219 197.714844 298.417969 179.992188 299.1875 C 179.414062 299.21875 178.84375 299.234375 178.269531 299.234375 " fill-opacity="1" fill-rule="nonzero"/></svg>